<mxfile host="app.diagrams.net" modified="2023-08-29T11:13:24.739Z" agent="Mozilla/5.0 (Windows NT 10.0; Win64; x64) AppleWebKit/537.36 (KHTML, like Gecko) Chrome/116.0.0.0 Safari/537.36" etag="lqrJNVWHk_YWW2-WPUN-" version="21.6.9" type="device">
  <diagram id="C5RBs43oDa-KdzZeNtuy" name="Page-1">
    <mxGraphModel dx="2388" dy="1263" grid="0" gridSize="10" guides="1" tooltips="1" connect="1" arrows="1" fold="1" page="0" pageScale="1" pageWidth="827" pageHeight="1169" math="0" shadow="0">
      <root>
        <mxCell id="WIyWlLk6GJQsqaUBKTNV-0" />
        <mxCell id="WIyWlLk6GJQsqaUBKTNV-1" parent="WIyWlLk6GJQsqaUBKTNV-0" />
        <mxCell id="JS1CEvQ-qRMqoW8XUNv4-74" value="" style="edgeStyle=orthogonalEdgeStyle;rounded=0;orthogonalLoop=1;jettySize=auto;html=1;fontStyle=1;fontSize=15;" edge="1" parent="WIyWlLk6GJQsqaUBKTNV-1" source="WIyWlLk6GJQsqaUBKTNV-3" target="JS1CEvQ-qRMqoW8XUNv4-2">
          <mxGeometry relative="1" as="geometry" />
        </mxCell>
        <mxCell id="WIyWlLk6GJQsqaUBKTNV-3" value="Power On" style="rounded=1;whiteSpace=wrap;html=1;fontSize=15;glass=0;strokeWidth=1;shadow=0;fontStyle=1;fillColor=#f8cecc;strokeColor=#b85450;" parent="WIyWlLk6GJQsqaUBKTNV-1" vertex="1">
          <mxGeometry x="160" y="40" width="120" height="40" as="geometry" />
        </mxCell>
        <mxCell id="JS1CEvQ-qRMqoW8XUNv4-14" value="" style="edgeStyle=orthogonalEdgeStyle;rounded=0;orthogonalLoop=1;jettySize=auto;html=1;fontStyle=1;fontSize=15;" edge="1" parent="WIyWlLk6GJQsqaUBKTNV-1" source="WIyWlLk6GJQsqaUBKTNV-6" target="JS1CEvQ-qRMqoW8XUNv4-9">
          <mxGeometry relative="1" as="geometry" />
        </mxCell>
        <mxCell id="JS1CEvQ-qRMqoW8XUNv4-19" value="&lt;span style=&quot;font-size: 15px;&quot;&gt;&lt;font style=&quot;font-size: 15px;&quot;&gt;Yes&lt;/font&gt;&lt;/span&gt;" style="edgeLabel;html=1;align=center;verticalAlign=middle;resizable=0;points=[];fontStyle=1;fontSize=15;" vertex="1" connectable="0" parent="JS1CEvQ-qRMqoW8XUNv4-14">
          <mxGeometry x="-0.1333" y="1" relative="1" as="geometry">
            <mxPoint as="offset" />
          </mxGeometry>
        </mxCell>
        <mxCell id="JS1CEvQ-qRMqoW8XUNv4-24" value="" style="edgeStyle=orthogonalEdgeStyle;rounded=0;orthogonalLoop=1;jettySize=auto;html=1;fontStyle=1;fontSize=15;" edge="1" parent="WIyWlLk6GJQsqaUBKTNV-1" source="WIyWlLk6GJQsqaUBKTNV-6" target="JS1CEvQ-qRMqoW8XUNv4-4">
          <mxGeometry relative="1" as="geometry" />
        </mxCell>
        <mxCell id="JS1CEvQ-qRMqoW8XUNv4-25" value="&lt;span style=&quot;font-size: 15px;&quot;&gt;&lt;font style=&quot;font-size: 15px;&quot;&gt;No&lt;/font&gt;&lt;/span&gt;" style="edgeLabel;html=1;align=center;verticalAlign=middle;resizable=0;points=[];fontStyle=1;fontSize=15;" vertex="1" connectable="0" parent="JS1CEvQ-qRMqoW8XUNv4-24">
          <mxGeometry x="-0.1667" y="-1" relative="1" as="geometry">
            <mxPoint as="offset" />
          </mxGeometry>
        </mxCell>
        <mxCell id="WIyWlLk6GJQsqaUBKTNV-6" value="If 1st btn&lt;br style=&quot;font-size: 15px;&quot;&gt;pressed" style="rhombus;whiteSpace=wrap;html=1;shadow=0;fontFamily=Helvetica;fontSize=15;align=center;strokeWidth=1;spacing=6;spacingTop=-4;fontStyle=1;fillColor=#d5e8d4;strokeColor=#82b366;" parent="WIyWlLk6GJQsqaUBKTNV-1" vertex="1">
          <mxGeometry x="170" y="420" width="100" height="80" as="geometry" />
        </mxCell>
        <mxCell id="JS1CEvQ-qRMqoW8XUNv4-22" value="" style="edgeStyle=orthogonalEdgeStyle;rounded=0;orthogonalLoop=1;jettySize=auto;html=1;fontStyle=1;fontSize=15;" edge="1" parent="WIyWlLk6GJQsqaUBKTNV-1" source="JS1CEvQ-qRMqoW8XUNv4-0" target="JS1CEvQ-qRMqoW8XUNv4-3">
          <mxGeometry relative="1" as="geometry" />
        </mxCell>
        <mxCell id="JS1CEvQ-qRMqoW8XUNv4-0" value="Hello Modesty!&lt;br style=&quot;font-size: 15px;&quot;&gt;Please press btn" style="shape=document;whiteSpace=wrap;html=1;boundedLbl=1;fontStyle=1;fontSize=15;fillColor=#f5f5f5;strokeColor=#666666;fontColor=#333333;" vertex="1" parent="WIyWlLk6GJQsqaUBKTNV-1">
          <mxGeometry x="160" y="220" width="120" height="80" as="geometry" />
        </mxCell>
        <mxCell id="JS1CEvQ-qRMqoW8XUNv4-21" value="" style="edgeStyle=orthogonalEdgeStyle;rounded=0;orthogonalLoop=1;jettySize=auto;html=1;fontStyle=1;fontSize=15;" edge="1" parent="WIyWlLk6GJQsqaUBKTNV-1" source="JS1CEvQ-qRMqoW8XUNv4-2" target="JS1CEvQ-qRMqoW8XUNv4-0">
          <mxGeometry relative="1" as="geometry" />
        </mxCell>
        <mxCell id="JS1CEvQ-qRMqoW8XUNv4-2" value="Initial Start Signal" style="rounded=0;whiteSpace=wrap;html=1;fontStyle=1;fontSize=15;fillColor=#fff2cc;strokeColor=#d6b656;" vertex="1" parent="WIyWlLk6GJQsqaUBKTNV-1">
          <mxGeometry x="160" y="120" width="120" height="60" as="geometry" />
        </mxCell>
        <mxCell id="JS1CEvQ-qRMqoW8XUNv4-23" value="" style="edgeStyle=orthogonalEdgeStyle;rounded=0;orthogonalLoop=1;jettySize=auto;html=1;fontStyle=1;fontSize=15;" edge="1" parent="WIyWlLk6GJQsqaUBKTNV-1" source="JS1CEvQ-qRMqoW8XUNv4-3" target="WIyWlLk6GJQsqaUBKTNV-6">
          <mxGeometry relative="1" as="geometry" />
        </mxCell>
        <mxCell id="JS1CEvQ-qRMqoW8XUNv4-3" value="Stage Select" style="rounded=0;whiteSpace=wrap;html=1;fontStyle=1;fontSize=15;fillColor=#fad7ac;strokeColor=#b46504;" vertex="1" parent="WIyWlLk6GJQsqaUBKTNV-1">
          <mxGeometry x="160" y="320" width="120" height="60" as="geometry" />
        </mxCell>
        <mxCell id="JS1CEvQ-qRMqoW8XUNv4-26" value="" style="edgeStyle=orthogonalEdgeStyle;rounded=0;orthogonalLoop=1;jettySize=auto;html=1;fontStyle=1;fontSize=15;" edge="1" parent="WIyWlLk6GJQsqaUBKTNV-1" source="JS1CEvQ-qRMqoW8XUNv4-4" target="JS1CEvQ-qRMqoW8XUNv4-5">
          <mxGeometry relative="1" as="geometry" />
        </mxCell>
        <mxCell id="JS1CEvQ-qRMqoW8XUNv4-27" value="&lt;font style=&quot;font-size: 15px;&quot;&gt;&lt;span style=&quot;font-size: 15px;&quot;&gt;No&lt;/span&gt;&lt;/font&gt;" style="edgeLabel;html=1;align=center;verticalAlign=middle;resizable=0;points=[];fontStyle=1;fontSize=15;" vertex="1" connectable="0" parent="JS1CEvQ-qRMqoW8XUNv4-26">
          <mxGeometry x="-0.2333" y="-3" relative="1" as="geometry">
            <mxPoint as="offset" />
          </mxGeometry>
        </mxCell>
        <mxCell id="JS1CEvQ-qRMqoW8XUNv4-4" value="If 2nd btn&lt;br style=&quot;font-size: 15px;&quot;&gt;pressed" style="rhombus;whiteSpace=wrap;html=1;shadow=0;fontFamily=Helvetica;fontSize=15;align=center;strokeWidth=1;spacing=6;spacingTop=-4;fontStyle=1;fillColor=#d5e8d4;strokeColor=#82b366;" vertex="1" parent="WIyWlLk6GJQsqaUBKTNV-1">
          <mxGeometry x="170" y="686.7199999999999" width="100" height="80" as="geometry" />
        </mxCell>
        <mxCell id="JS1CEvQ-qRMqoW8XUNv4-28" value="" style="edgeStyle=orthogonalEdgeStyle;rounded=0;orthogonalLoop=1;jettySize=auto;html=1;fontStyle=1;fontSize=15;" edge="1" parent="WIyWlLk6GJQsqaUBKTNV-1" source="JS1CEvQ-qRMqoW8XUNv4-5" target="JS1CEvQ-qRMqoW8XUNv4-6">
          <mxGeometry relative="1" as="geometry" />
        </mxCell>
        <mxCell id="JS1CEvQ-qRMqoW8XUNv4-29" value="&lt;font style=&quot;font-size: 15px;&quot;&gt;&lt;span style=&quot;font-size: 15px;&quot;&gt;No&lt;/span&gt;&lt;/font&gt;" style="edgeLabel;html=1;align=center;verticalAlign=middle;resizable=0;points=[];fontStyle=1;fontSize=15;" vertex="1" connectable="0" parent="JS1CEvQ-qRMqoW8XUNv4-28">
          <mxGeometry x="-0.2333" y="-1" relative="1" as="geometry">
            <mxPoint as="offset" />
          </mxGeometry>
        </mxCell>
        <mxCell id="JS1CEvQ-qRMqoW8XUNv4-5" value="If 3rd btn&lt;br style=&quot;font-size: 15px;&quot;&gt;pressed" style="rhombus;whiteSpace=wrap;html=1;shadow=0;fontFamily=Helvetica;fontSize=15;align=center;strokeWidth=1;spacing=6;spacingTop=-4;fontStyle=1;fillColor=#d5e8d4;strokeColor=#82b366;" vertex="1" parent="WIyWlLk6GJQsqaUBKTNV-1">
          <mxGeometry x="170" y="936" width="100" height="80" as="geometry" />
        </mxCell>
        <mxCell id="JS1CEvQ-qRMqoW8XUNv4-30" value="" style="edgeStyle=orthogonalEdgeStyle;rounded=0;orthogonalLoop=1;jettySize=auto;html=1;fontStyle=1;fontSize=15;" edge="1" parent="WIyWlLk6GJQsqaUBKTNV-1" source="JS1CEvQ-qRMqoW8XUNv4-6">
          <mxGeometry relative="1" as="geometry">
            <mxPoint x="220" y="1250" as="targetPoint" />
          </mxGeometry>
        </mxCell>
        <mxCell id="JS1CEvQ-qRMqoW8XUNv4-31" value="&lt;span style=&quot;font-size: 15px;&quot;&gt;&lt;font style=&quot;font-size: 15px;&quot;&gt;No&lt;/font&gt;&lt;/span&gt;" style="edgeLabel;html=1;align=center;verticalAlign=middle;resizable=0;points=[];fontStyle=1;fontSize=15;" vertex="1" connectable="0" parent="JS1CEvQ-qRMqoW8XUNv4-30">
          <mxGeometry x="-0.3333" relative="1" as="geometry">
            <mxPoint as="offset" />
          </mxGeometry>
        </mxCell>
        <mxCell id="JS1CEvQ-qRMqoW8XUNv4-6" value="If stop btn&lt;br style=&quot;font-size: 15px;&quot;&gt;pressed" style="rhombus;whiteSpace=wrap;html=1;shadow=0;fontFamily=Helvetica;fontSize=15;align=center;strokeWidth=1;spacing=6;spacingTop=-4;fontStyle=1;fillColor=#d5e8d4;strokeColor=#82b366;" vertex="1" parent="WIyWlLk6GJQsqaUBKTNV-1">
          <mxGeometry x="170" y="1110" width="100" height="80" as="geometry" />
        </mxCell>
        <mxCell id="JS1CEvQ-qRMqoW8XUNv4-145" value="" style="edgeStyle=orthogonalEdgeStyle;rounded=0;orthogonalLoop=1;jettySize=auto;html=1;fontStyle=1;fontSize=15;" edge="1" parent="WIyWlLk6GJQsqaUBKTNV-1" source="JS1CEvQ-qRMqoW8XUNv4-8" target="JS1CEvQ-qRMqoW8XUNv4-6">
          <mxGeometry relative="1" as="geometry" />
        </mxCell>
        <mxCell id="JS1CEvQ-qRMqoW8XUNv4-197" style="edgeStyle=orthogonalEdgeStyle;rounded=0;orthogonalLoop=1;jettySize=auto;html=1;exitX=0;exitY=0.5;exitDx=0;exitDy=0;entryX=0;entryY=0.5;entryDx=0;entryDy=0;" edge="1" parent="WIyWlLk6GJQsqaUBKTNV-1" source="JS1CEvQ-qRMqoW8XUNv4-8" target="JS1CEvQ-qRMqoW8XUNv4-3">
          <mxGeometry relative="1" as="geometry">
            <Array as="points">
              <mxPoint x="88" y="1283" />
              <mxPoint x="88" y="350" />
            </Array>
          </mxGeometry>
        </mxCell>
        <mxCell id="JS1CEvQ-qRMqoW8XUNv4-8" value="Waiting&lt;br style=&quot;font-size: 15px;&quot;&gt;Command" style="rounded=0;whiteSpace=wrap;html=1;fontStyle=1;fontSize=15;fillColor=#fff2cc;strokeColor=#d6b656;" vertex="1" parent="WIyWlLk6GJQsqaUBKTNV-1">
          <mxGeometry x="160" y="1253" width="120" height="60" as="geometry" />
        </mxCell>
        <mxCell id="JS1CEvQ-qRMqoW8XUNv4-15" value="" style="edgeStyle=orthogonalEdgeStyle;rounded=0;orthogonalLoop=1;jettySize=auto;html=1;fontStyle=1;fontSize=15;" edge="1" parent="WIyWlLk6GJQsqaUBKTNV-1" source="JS1CEvQ-qRMqoW8XUNv4-9" target="JS1CEvQ-qRMqoW8XUNv4-10">
          <mxGeometry relative="1" as="geometry" />
        </mxCell>
        <mxCell id="JS1CEvQ-qRMqoW8XUNv4-9" value="Start" style="rounded=0;whiteSpace=wrap;html=1;fontStyle=1;fontSize=15;fillColor=#dae8fc;strokeColor=#6c8ebf;" vertex="1" parent="WIyWlLk6GJQsqaUBKTNV-1">
          <mxGeometry x="330" y="430" width="120" height="60" as="geometry" />
        </mxCell>
        <mxCell id="JS1CEvQ-qRMqoW8XUNv4-78" value="" style="edgeStyle=orthogonalEdgeStyle;rounded=0;orthogonalLoop=1;jettySize=auto;html=1;fontStyle=1;fontSize=15;" edge="1" parent="WIyWlLk6GJQsqaUBKTNV-1" source="JS1CEvQ-qRMqoW8XUNv4-10" target="JS1CEvQ-qRMqoW8XUNv4-75">
          <mxGeometry relative="1" as="geometry" />
        </mxCell>
        <mxCell id="JS1CEvQ-qRMqoW8XUNv4-10" value="1st Stage&lt;br style=&quot;font-size: 15px;&quot;&gt;Power : 25%" style="shape=document;whiteSpace=wrap;html=1;boundedLbl=1;fontStyle=1;fontSize=15;fillColor=#f5f5f5;strokeColor=#666666;fontColor=#333333;" vertex="1" parent="WIyWlLk6GJQsqaUBKTNV-1">
          <mxGeometry x="510" y="420" width="120" height="80" as="geometry" />
        </mxCell>
        <mxCell id="JS1CEvQ-qRMqoW8XUNv4-118" style="edgeStyle=orthogonalEdgeStyle;rounded=0;orthogonalLoop=1;jettySize=auto;html=1;entryX=0;entryY=0.5;entryDx=0;entryDy=0;fontStyle=1;fontSize=15;exitX=1;exitY=0.5;exitDx=0;exitDy=0;" edge="1" parent="WIyWlLk6GJQsqaUBKTNV-1" source="JS1CEvQ-qRMqoW8XUNv4-11" target="JS1CEvQ-qRMqoW8XUNv4-13">
          <mxGeometry relative="1" as="geometry">
            <mxPoint x="1160" y="460" as="sourcePoint" />
          </mxGeometry>
        </mxCell>
        <mxCell id="JS1CEvQ-qRMqoW8XUNv4-11" value="25% Run" style="rounded=0;whiteSpace=wrap;html=1;fontStyle=1;fontSize=15;fillColor=#dae8fc;strokeColor=#6c8ebf;" vertex="1" parent="WIyWlLk6GJQsqaUBKTNV-1">
          <mxGeometry x="860" y="430" width="120" height="60" as="geometry" />
        </mxCell>
        <mxCell id="JS1CEvQ-qRMqoW8XUNv4-92" style="edgeStyle=orthogonalEdgeStyle;rounded=0;orthogonalLoop=1;jettySize=auto;html=1;exitX=1;exitY=0.5;exitDx=0;exitDy=0;entryX=1;entryY=0.5;entryDx=0;entryDy=0;fontStyle=1;fontSize=15;" edge="1" parent="WIyWlLk6GJQsqaUBKTNV-1" source="JS1CEvQ-qRMqoW8XUNv4-13" target="JS1CEvQ-qRMqoW8XUNv4-3">
          <mxGeometry relative="1" as="geometry">
            <Array as="points">
              <mxPoint x="2220" y="460" />
              <mxPoint x="2220" y="230" />
              <mxPoint x="830" y="230" />
              <mxPoint x="830" y="350" />
            </Array>
          </mxGeometry>
        </mxCell>
        <mxCell id="JS1CEvQ-qRMqoW8XUNv4-93" value="&lt;span style=&quot;font-size: 15px;&quot;&gt;&lt;font style=&quot;font-size: 15px;&quot;&gt;Yes&lt;/font&gt;&lt;/span&gt;" style="edgeLabel;html=1;align=center;verticalAlign=middle;resizable=0;points=[];fontStyle=1;fontSize=15;" vertex="1" connectable="0" parent="JS1CEvQ-qRMqoW8XUNv4-92">
          <mxGeometry x="-0.9633" y="4" relative="1" as="geometry">
            <mxPoint as="offset" />
          </mxGeometry>
        </mxCell>
        <mxCell id="JS1CEvQ-qRMqoW8XUNv4-116" style="edgeStyle=orthogonalEdgeStyle;rounded=0;orthogonalLoop=1;jettySize=auto;html=1;exitX=0.5;exitY=0;exitDx=0;exitDy=0;entryX=1;entryY=0.5;entryDx=0;entryDy=0;fontStyle=1;fontSize=15;" edge="1" parent="WIyWlLk6GJQsqaUBKTNV-1" source="JS1CEvQ-qRMqoW8XUNv4-13" target="JS1CEvQ-qRMqoW8XUNv4-111">
          <mxGeometry relative="1" as="geometry" />
        </mxCell>
        <mxCell id="JS1CEvQ-qRMqoW8XUNv4-119" value="&lt;span style=&quot;font-size: 15px;&quot;&gt;&lt;font style=&quot;font-size: 15px;&quot;&gt;No&lt;/font&gt;&lt;/span&gt;" style="edgeLabel;html=1;align=center;verticalAlign=middle;resizable=0;points=[];fontStyle=1;fontSize=15;" vertex="1" connectable="0" parent="JS1CEvQ-qRMqoW8XUNv4-116">
          <mxGeometry x="0.218" relative="1" as="geometry">
            <mxPoint x="1" as="offset" />
          </mxGeometry>
        </mxCell>
        <mxCell id="JS1CEvQ-qRMqoW8XUNv4-13" value="If&lt;br style=&quot;font-size: 15px;&quot;&gt;&amp;nbsp;another btn&lt;br style=&quot;font-size: 15px;&quot;&gt;pressed" style="rhombus;whiteSpace=wrap;html=1;shadow=0;fontFamily=Helvetica;fontSize=15;align=center;strokeWidth=1;spacing=6;spacingTop=-4;fontStyle=1;fillColor=#d5e8d4;strokeColor=#82b366;" vertex="1" parent="WIyWlLk6GJQsqaUBKTNV-1">
          <mxGeometry x="2050" y="420" width="100" height="80" as="geometry" />
        </mxCell>
        <mxCell id="JS1CEvQ-qRMqoW8XUNv4-32" value="" style="edgeStyle=orthogonalEdgeStyle;rounded=0;orthogonalLoop=1;jettySize=auto;html=1;fontStyle=1;fontSize=15;" edge="1" parent="WIyWlLk6GJQsqaUBKTNV-1" target="JS1CEvQ-qRMqoW8XUNv4-35">
          <mxGeometry relative="1" as="geometry">
            <mxPoint x="270" y="726.7199999999999" as="sourcePoint" />
          </mxGeometry>
        </mxCell>
        <mxCell id="JS1CEvQ-qRMqoW8XUNv4-33" value="&lt;span style=&quot;font-size: 15px;&quot;&gt;&lt;font style=&quot;font-size: 15px;&quot;&gt;Yes&lt;/font&gt;&lt;/span&gt;" style="edgeLabel;html=1;align=center;verticalAlign=middle;resizable=0;points=[];fontStyle=1;fontSize=15;" vertex="1" connectable="0" parent="JS1CEvQ-qRMqoW8XUNv4-32">
          <mxGeometry x="-0.1333" y="1" relative="1" as="geometry">
            <mxPoint as="offset" />
          </mxGeometry>
        </mxCell>
        <mxCell id="JS1CEvQ-qRMqoW8XUNv4-34" value="" style="edgeStyle=orthogonalEdgeStyle;rounded=0;orthogonalLoop=1;jettySize=auto;html=1;fontStyle=1;fontSize=15;" edge="1" parent="WIyWlLk6GJQsqaUBKTNV-1" source="JS1CEvQ-qRMqoW8XUNv4-35" target="JS1CEvQ-qRMqoW8XUNv4-37">
          <mxGeometry relative="1" as="geometry" />
        </mxCell>
        <mxCell id="JS1CEvQ-qRMqoW8XUNv4-35" value="Start" style="rounded=0;whiteSpace=wrap;html=1;fontStyle=1;fontSize=15;fillColor=#dae8fc;strokeColor=#6c8ebf;" vertex="1" parent="WIyWlLk6GJQsqaUBKTNV-1">
          <mxGeometry x="330" y="696.7199999999999" width="120" height="60" as="geometry" />
        </mxCell>
        <mxCell id="JS1CEvQ-qRMqoW8XUNv4-79" value="" style="edgeStyle=orthogonalEdgeStyle;rounded=0;orthogonalLoop=1;jettySize=auto;html=1;fontStyle=1;fontSize=15;" edge="1" parent="WIyWlLk6GJQsqaUBKTNV-1" source="JS1CEvQ-qRMqoW8XUNv4-37" target="JS1CEvQ-qRMqoW8XUNv4-76">
          <mxGeometry relative="1" as="geometry" />
        </mxCell>
        <mxCell id="JS1CEvQ-qRMqoW8XUNv4-37" value="2nd Stage&lt;br style=&quot;font-size: 15px;&quot;&gt;Power : 50%" style="shape=document;whiteSpace=wrap;html=1;boundedLbl=1;fontStyle=1;fontSize=15;fillColor=#f5f5f5;strokeColor=#666666;fontColor=#333333;" vertex="1" parent="WIyWlLk6GJQsqaUBKTNV-1">
          <mxGeometry x="510" y="686.7199999999999" width="120" height="80" as="geometry" />
        </mxCell>
        <mxCell id="JS1CEvQ-qRMqoW8XUNv4-135" style="edgeStyle=orthogonalEdgeStyle;rounded=0;orthogonalLoop=1;jettySize=auto;html=1;entryX=0;entryY=0.5;entryDx=0;entryDy=0;fontStyle=1;fontSize=15;exitX=1;exitY=0.5;exitDx=0;exitDy=0;" edge="1" parent="WIyWlLk6GJQsqaUBKTNV-1" source="JS1CEvQ-qRMqoW8XUNv4-39" target="JS1CEvQ-qRMqoW8XUNv4-42">
          <mxGeometry relative="1" as="geometry">
            <mxPoint x="1160" y="727" as="sourcePoint" />
          </mxGeometry>
        </mxCell>
        <mxCell id="JS1CEvQ-qRMqoW8XUNv4-39" value="50% Run" style="rounded=0;whiteSpace=wrap;html=1;fontStyle=1;fontSize=15;fillColor=#dae8fc;strokeColor=#6c8ebf;" vertex="1" parent="WIyWlLk6GJQsqaUBKTNV-1">
          <mxGeometry x="860" y="696.7199999999999" width="120" height="60" as="geometry" />
        </mxCell>
        <mxCell id="JS1CEvQ-qRMqoW8XUNv4-126" style="edgeStyle=orthogonalEdgeStyle;rounded=0;orthogonalLoop=1;jettySize=auto;html=1;exitX=0.5;exitY=0;exitDx=0;exitDy=0;entryX=1;entryY=0.5;entryDx=0;entryDy=0;fontStyle=1;fontSize=15;" edge="1" parent="WIyWlLk6GJQsqaUBKTNV-1" source="JS1CEvQ-qRMqoW8XUNv4-42" target="JS1CEvQ-qRMqoW8XUNv4-125">
          <mxGeometry relative="1" as="geometry" />
        </mxCell>
        <mxCell id="JS1CEvQ-qRMqoW8XUNv4-137" value="&lt;span style=&quot;font-size: 15px;&quot;&gt;&lt;font style=&quot;font-size: 15px;&quot;&gt;No&lt;/font&gt;&lt;/span&gt;" style="edgeLabel;html=1;align=center;verticalAlign=middle;resizable=0;points=[];fontStyle=1;fontSize=15;" vertex="1" connectable="0" parent="JS1CEvQ-qRMqoW8XUNv4-126">
          <mxGeometry x="0.2515" y="-1" relative="1" as="geometry">
            <mxPoint as="offset" />
          </mxGeometry>
        </mxCell>
        <mxCell id="JS1CEvQ-qRMqoW8XUNv4-140" style="edgeStyle=orthogonalEdgeStyle;rounded=0;orthogonalLoop=1;jettySize=auto;html=1;exitX=1;exitY=0.5;exitDx=0;exitDy=0;fontStyle=1;fontSize=15;" edge="1" parent="WIyWlLk6GJQsqaUBKTNV-1" source="JS1CEvQ-qRMqoW8XUNv4-42">
          <mxGeometry relative="1" as="geometry">
            <mxPoint x="2220" y="340" as="targetPoint" />
          </mxGeometry>
        </mxCell>
        <mxCell id="JS1CEvQ-qRMqoW8XUNv4-142" value="&lt;span style=&quot;font-size: 15px;&quot;&gt;&lt;font style=&quot;font-size: 15px;&quot;&gt;Yes&lt;/font&gt;&lt;/span&gt;" style="edgeLabel;html=1;align=center;verticalAlign=middle;resizable=0;points=[];fontStyle=1;fontSize=15;" vertex="1" connectable="0" parent="JS1CEvQ-qRMqoW8XUNv4-140">
          <mxGeometry x="-0.8341" y="4" relative="1" as="geometry">
            <mxPoint as="offset" />
          </mxGeometry>
        </mxCell>
        <mxCell id="JS1CEvQ-qRMqoW8XUNv4-42" value="If&lt;br style=&quot;font-size: 15px;&quot;&gt;&amp;nbsp;another btn&lt;br style=&quot;font-size: 15px;&quot;&gt;pressed" style="rhombus;whiteSpace=wrap;html=1;shadow=0;fontFamily=Helvetica;fontSize=15;align=center;strokeWidth=1;spacing=6;spacingTop=-4;fontStyle=1;fillColor=#d5e8d4;strokeColor=#82b366;" vertex="1" parent="WIyWlLk6GJQsqaUBKTNV-1">
          <mxGeometry x="2050" y="686.7199999999999" width="100" height="80" as="geometry" />
        </mxCell>
        <mxCell id="JS1CEvQ-qRMqoW8XUNv4-43" value="" style="edgeStyle=orthogonalEdgeStyle;rounded=0;orthogonalLoop=1;jettySize=auto;html=1;fontStyle=1;fontSize=15;" edge="1" parent="WIyWlLk6GJQsqaUBKTNV-1" target="JS1CEvQ-qRMqoW8XUNv4-46">
          <mxGeometry relative="1" as="geometry">
            <mxPoint x="270" y="976" as="sourcePoint" />
          </mxGeometry>
        </mxCell>
        <mxCell id="JS1CEvQ-qRMqoW8XUNv4-44" value="&lt;span style=&quot;font-size: 15px;&quot;&gt;&lt;font style=&quot;font-size: 15px;&quot;&gt;Yes&lt;/font&gt;&lt;/span&gt;" style="edgeLabel;html=1;align=center;verticalAlign=middle;resizable=0;points=[];fontStyle=1;fontSize=15;" vertex="1" connectable="0" parent="JS1CEvQ-qRMqoW8XUNv4-43">
          <mxGeometry x="-0.1333" y="1" relative="1" as="geometry">
            <mxPoint as="offset" />
          </mxGeometry>
        </mxCell>
        <mxCell id="JS1CEvQ-qRMqoW8XUNv4-45" value="" style="edgeStyle=orthogonalEdgeStyle;rounded=0;orthogonalLoop=1;jettySize=auto;html=1;fontStyle=1;fontSize=15;" edge="1" parent="WIyWlLk6GJQsqaUBKTNV-1" source="JS1CEvQ-qRMqoW8XUNv4-46" target="JS1CEvQ-qRMqoW8XUNv4-48">
          <mxGeometry relative="1" as="geometry" />
        </mxCell>
        <mxCell id="JS1CEvQ-qRMqoW8XUNv4-46" value="Start" style="rounded=0;whiteSpace=wrap;html=1;fontStyle=1;fontSize=15;fillColor=#dae8fc;strokeColor=#6c8ebf;" vertex="1" parent="WIyWlLk6GJQsqaUBKTNV-1">
          <mxGeometry x="330" y="946" width="120" height="60" as="geometry" />
        </mxCell>
        <mxCell id="JS1CEvQ-qRMqoW8XUNv4-80" value="" style="edgeStyle=orthogonalEdgeStyle;rounded=0;orthogonalLoop=1;jettySize=auto;html=1;fontStyle=1;fontSize=15;" edge="1" parent="WIyWlLk6GJQsqaUBKTNV-1" source="JS1CEvQ-qRMqoW8XUNv4-48" target="JS1CEvQ-qRMqoW8XUNv4-77">
          <mxGeometry relative="1" as="geometry" />
        </mxCell>
        <mxCell id="JS1CEvQ-qRMqoW8XUNv4-48" value="3rd Stage&lt;br style=&quot;font-size: 15px;&quot;&gt;Power : 100%" style="shape=document;whiteSpace=wrap;html=1;boundedLbl=1;fontStyle=1;fontSize=15;fillColor=#f5f5f5;strokeColor=#666666;fontColor=#333333;" vertex="1" parent="WIyWlLk6GJQsqaUBKTNV-1">
          <mxGeometry x="510" y="936" width="120" height="80" as="geometry" />
        </mxCell>
        <mxCell id="JS1CEvQ-qRMqoW8XUNv4-136" style="edgeStyle=orthogonalEdgeStyle;rounded=0;orthogonalLoop=1;jettySize=auto;html=1;entryX=0;entryY=0.5;entryDx=0;entryDy=0;fontStyle=1;fontSize=15;" edge="1" parent="WIyWlLk6GJQsqaUBKTNV-1" target="JS1CEvQ-qRMqoW8XUNv4-53">
          <mxGeometry relative="1" as="geometry">
            <mxPoint x="980" y="976" as="sourcePoint" />
          </mxGeometry>
        </mxCell>
        <mxCell id="JS1CEvQ-qRMqoW8XUNv4-50" value="100% Run" style="rounded=0;whiteSpace=wrap;html=1;fontStyle=1;fontSize=15;fillColor=#dae8fc;strokeColor=#6c8ebf;" vertex="1" parent="WIyWlLk6GJQsqaUBKTNV-1">
          <mxGeometry x="860" y="946" width="120" height="60" as="geometry" />
        </mxCell>
        <mxCell id="JS1CEvQ-qRMqoW8XUNv4-133" style="edgeStyle=orthogonalEdgeStyle;rounded=0;orthogonalLoop=1;jettySize=auto;html=1;exitX=0.5;exitY=0;exitDx=0;exitDy=0;entryX=1;entryY=0.5;entryDx=0;entryDy=0;fontStyle=1;fontSize=15;" edge="1" parent="WIyWlLk6GJQsqaUBKTNV-1" source="JS1CEvQ-qRMqoW8XUNv4-53" target="JS1CEvQ-qRMqoW8XUNv4-132">
          <mxGeometry relative="1" as="geometry" />
        </mxCell>
        <mxCell id="JS1CEvQ-qRMqoW8XUNv4-138" value="&lt;span style=&quot;font-size: 15px;&quot;&gt;&lt;font style=&quot;font-size: 15px;&quot;&gt;No&lt;/font&gt;&lt;/span&gt;" style="edgeLabel;html=1;align=center;verticalAlign=middle;resizable=0;points=[];fontStyle=1;fontSize=15;" vertex="1" connectable="0" parent="JS1CEvQ-qRMqoW8XUNv4-133">
          <mxGeometry x="0.2851" y="-3" relative="1" as="geometry">
            <mxPoint as="offset" />
          </mxGeometry>
        </mxCell>
        <mxCell id="JS1CEvQ-qRMqoW8XUNv4-141" style="edgeStyle=orthogonalEdgeStyle;rounded=0;orthogonalLoop=1;jettySize=auto;html=1;exitX=1;exitY=0.5;exitDx=0;exitDy=0;fontStyle=1;fontSize=15;" edge="1" parent="WIyWlLk6GJQsqaUBKTNV-1" source="JS1CEvQ-qRMqoW8XUNv4-53">
          <mxGeometry relative="1" as="geometry">
            <mxPoint x="2220" y="611.43" as="targetPoint" />
          </mxGeometry>
        </mxCell>
        <mxCell id="JS1CEvQ-qRMqoW8XUNv4-144" value="&lt;font style=&quot;font-size: 15px;&quot;&gt;&lt;span style=&quot;font-size: 15px;&quot;&gt;Yes&lt;/span&gt;&lt;/font&gt;" style="edgeLabel;html=1;align=center;verticalAlign=middle;resizable=0;points=[];fontStyle=1;fontSize=15;" vertex="1" connectable="0" parent="JS1CEvQ-qRMqoW8XUNv4-141">
          <mxGeometry x="-0.7936" y="3" relative="1" as="geometry">
            <mxPoint as="offset" />
          </mxGeometry>
        </mxCell>
        <mxCell id="JS1CEvQ-qRMqoW8XUNv4-53" value="If&lt;br style=&quot;font-size: 15px;&quot;&gt;&amp;nbsp;another btn&lt;br style=&quot;font-size: 15px;&quot;&gt;pressed" style="rhombus;whiteSpace=wrap;html=1;shadow=0;fontFamily=Helvetica;fontSize=15;align=center;strokeWidth=1;spacing=6;spacingTop=-4;fontStyle=1;fillColor=#d5e8d4;strokeColor=#82b366;" vertex="1" parent="WIyWlLk6GJQsqaUBKTNV-1">
          <mxGeometry x="2050" y="936" width="100" height="80" as="geometry" />
        </mxCell>
        <mxCell id="JS1CEvQ-qRMqoW8XUNv4-54" value="" style="edgeStyle=orthogonalEdgeStyle;rounded=0;orthogonalLoop=1;jettySize=auto;html=1;exitX=1;exitY=0.5;exitDx=0;exitDy=0;fontStyle=1;fontSize=15;" edge="1" parent="WIyWlLk6GJQsqaUBKTNV-1" target="JS1CEvQ-qRMqoW8XUNv4-57" source="JS1CEvQ-qRMqoW8XUNv4-6">
          <mxGeometry relative="1" as="geometry">
            <mxPoint x="530" y="1150" as="sourcePoint" />
          </mxGeometry>
        </mxCell>
        <mxCell id="JS1CEvQ-qRMqoW8XUNv4-55" value="&lt;span style=&quot;font-size: 15px;&quot;&gt;&lt;font style=&quot;font-size: 15px;&quot;&gt;Yes&lt;/font&gt;&lt;/span&gt;" style="edgeLabel;html=1;align=center;verticalAlign=middle;resizable=0;points=[];fontStyle=1;fontSize=15;" vertex="1" connectable="0" parent="JS1CEvQ-qRMqoW8XUNv4-54">
          <mxGeometry x="-0.1333" y="1" relative="1" as="geometry">
            <mxPoint as="offset" />
          </mxGeometry>
        </mxCell>
        <mxCell id="JS1CEvQ-qRMqoW8XUNv4-56" value="" style="edgeStyle=orthogonalEdgeStyle;rounded=0;orthogonalLoop=1;jettySize=auto;html=1;fontStyle=1;fontSize=15;" edge="1" parent="WIyWlLk6GJQsqaUBKTNV-1" source="JS1CEvQ-qRMqoW8XUNv4-57" target="JS1CEvQ-qRMqoW8XUNv4-59">
          <mxGeometry relative="1" as="geometry" />
        </mxCell>
        <mxCell id="JS1CEvQ-qRMqoW8XUNv4-57" value="Motor Stop&lt;br style=&quot;font-size: 15px;&quot;&gt;Spin Stop" style="rounded=0;whiteSpace=wrap;html=1;fontStyle=1;fontSize=15;fillColor=#bac8d3;strokeColor=#23445d;" vertex="1" parent="WIyWlLk6GJQsqaUBKTNV-1">
          <mxGeometry x="330" y="1110" width="120" height="60" as="geometry" />
        </mxCell>
        <mxCell id="JS1CEvQ-qRMqoW8XUNv4-65" style="edgeStyle=orthogonalEdgeStyle;rounded=0;orthogonalLoop=1;jettySize=auto;html=1;exitX=1;exitY=0.5;exitDx=0;exitDy=0;entryX=1;entryY=0.5;entryDx=0;entryDy=0;fontStyle=1;fontSize=15;" edge="1" parent="WIyWlLk6GJQsqaUBKTNV-1" source="JS1CEvQ-qRMqoW8XUNv4-59">
          <mxGeometry relative="1" as="geometry">
            <mxPoint x="280" y="1280" as="targetPoint" />
            <Array as="points">
              <mxPoint x="630" y="1150" />
              <mxPoint x="720" y="1150" />
              <mxPoint x="720" y="1280" />
            </Array>
          </mxGeometry>
        </mxCell>
        <mxCell id="JS1CEvQ-qRMqoW8XUNv4-59" value="Stop mode&lt;br style=&quot;font-size: 15px;&quot;&gt;Power = 0%" style="shape=document;whiteSpace=wrap;html=1;boundedLbl=1;fontStyle=1;fontSize=15;fillColor=#f5f5f5;strokeColor=#666666;fontColor=#333333;" vertex="1" parent="WIyWlLk6GJQsqaUBKTNV-1">
          <mxGeometry x="510" y="1100" width="120" height="80" as="geometry" />
        </mxCell>
        <mxCell id="JS1CEvQ-qRMqoW8XUNv4-81" value="" style="edgeStyle=orthogonalEdgeStyle;rounded=0;orthogonalLoop=1;jettySize=auto;html=1;fontStyle=1;fontSize=15;" edge="1" parent="WIyWlLk6GJQsqaUBKTNV-1" source="JS1CEvQ-qRMqoW8XUNv4-75" target="JS1CEvQ-qRMqoW8XUNv4-11">
          <mxGeometry relative="1" as="geometry" />
        </mxCell>
        <mxCell id="JS1CEvQ-qRMqoW8XUNv4-75" value="No.1 LED On" style="shape=document;whiteSpace=wrap;html=1;boundedLbl=1;fontStyle=1;fontSize=15;fillColor=#f5f5f5;strokeColor=#666666;fontColor=#333333;" vertex="1" parent="WIyWlLk6GJQsqaUBKTNV-1">
          <mxGeometry x="680" y="420" width="120" height="80" as="geometry" />
        </mxCell>
        <mxCell id="JS1CEvQ-qRMqoW8XUNv4-82" value="" style="edgeStyle=orthogonalEdgeStyle;rounded=0;orthogonalLoop=1;jettySize=auto;html=1;fontStyle=1;fontSize=15;" edge="1" parent="WIyWlLk6GJQsqaUBKTNV-1" source="JS1CEvQ-qRMqoW8XUNv4-76" target="JS1CEvQ-qRMqoW8XUNv4-39">
          <mxGeometry relative="1" as="geometry" />
        </mxCell>
        <mxCell id="JS1CEvQ-qRMqoW8XUNv4-76" value="No.1 LED On&lt;br style=&quot;font-size: 15px;&quot;&gt;No.2 LED On" style="shape=document;whiteSpace=wrap;html=1;boundedLbl=1;fontStyle=1;fontSize=15;fillColor=#f5f5f5;strokeColor=#666666;fontColor=#333333;" vertex="1" parent="WIyWlLk6GJQsqaUBKTNV-1">
          <mxGeometry x="680" y="686.7199999999999" width="120" height="80" as="geometry" />
        </mxCell>
        <mxCell id="JS1CEvQ-qRMqoW8XUNv4-83" value="" style="edgeStyle=orthogonalEdgeStyle;rounded=0;orthogonalLoop=1;jettySize=auto;html=1;fontStyle=1;fontSize=15;" edge="1" parent="WIyWlLk6GJQsqaUBKTNV-1" source="JS1CEvQ-qRMqoW8XUNv4-77" target="JS1CEvQ-qRMqoW8XUNv4-50">
          <mxGeometry relative="1" as="geometry" />
        </mxCell>
        <mxCell id="JS1CEvQ-qRMqoW8XUNv4-77" value="No.1 LED On&lt;br style=&quot;font-size: 15px;&quot;&gt;No.2 LED On&lt;br style=&quot;font-size: 15px;&quot;&gt;No.3 LED On" style="shape=document;whiteSpace=wrap;html=1;boundedLbl=1;fontStyle=1;fontSize=15;fillColor=#f5f5f5;strokeColor=#666666;fontColor=#333333;" vertex="1" parent="WIyWlLk6GJQsqaUBKTNV-1">
          <mxGeometry x="680" y="936" width="120" height="80" as="geometry" />
        </mxCell>
        <mxCell id="JS1CEvQ-qRMqoW8XUNv4-114" value="" style="edgeStyle=orthogonalEdgeStyle;rounded=0;orthogonalLoop=1;jettySize=auto;html=1;fontStyle=1;fontSize=15;" edge="1" parent="WIyWlLk6GJQsqaUBKTNV-1" source="JS1CEvQ-qRMqoW8XUNv4-86" target="JS1CEvQ-qRMqoW8XUNv4-110">
          <mxGeometry relative="1" as="geometry" />
        </mxCell>
        <mxCell id="JS1CEvQ-qRMqoW8XUNv4-86" value="Spin Start" style="rounded=0;whiteSpace=wrap;html=1;fontStyle=1;fontSize=15;fillColor=#dae8fc;strokeColor=#6c8ebf;" vertex="1" parent="WIyWlLk6GJQsqaUBKTNV-1">
          <mxGeometry x="1700" y="350" width="120" height="60" as="geometry" />
        </mxCell>
        <mxCell id="JS1CEvQ-qRMqoW8XUNv4-156" value="" style="edgeStyle=orthogonalEdgeStyle;rounded=0;orthogonalLoop=1;jettySize=auto;html=1;fontStyle=1;fontSize=15;" edge="1" parent="WIyWlLk6GJQsqaUBKTNV-1" source="JS1CEvQ-qRMqoW8XUNv4-110" target="JS1CEvQ-qRMqoW8XUNv4-155">
          <mxGeometry relative="1" as="geometry" />
        </mxCell>
        <mxCell id="JS1CEvQ-qRMqoW8XUNv4-110" value="No.4 LED On" style="shape=document;whiteSpace=wrap;html=1;boundedLbl=1;fontStyle=1;fontSize=15;fillColor=#f5f5f5;strokeColor=#666666;fontColor=#333333;" vertex="1" parent="WIyWlLk6GJQsqaUBKTNV-1">
          <mxGeometry x="1520" y="340" width="120" height="80" as="geometry" />
        </mxCell>
        <mxCell id="JS1CEvQ-qRMqoW8XUNv4-113" value="" style="edgeStyle=orthogonalEdgeStyle;rounded=0;orthogonalLoop=1;jettySize=auto;html=1;fontStyle=1;fontSize=15;" edge="1" parent="WIyWlLk6GJQsqaUBKTNV-1" source="JS1CEvQ-qRMqoW8XUNv4-111" target="JS1CEvQ-qRMqoW8XUNv4-86">
          <mxGeometry relative="1" as="geometry" />
        </mxCell>
        <mxCell id="JS1CEvQ-qRMqoW8XUNv4-150" value="&lt;span style=&quot;font-size: 15px;&quot;&gt;&lt;font style=&quot;font-size: 15px;&quot;&gt;Yes&lt;/font&gt;&lt;/span&gt;" style="edgeLabel;html=1;align=center;verticalAlign=middle;resizable=0;points=[];fontStyle=1;fontSize=15;" vertex="1" connectable="0" parent="JS1CEvQ-qRMqoW8XUNv4-113">
          <mxGeometry x="-0.1464" y="-3" relative="1" as="geometry">
            <mxPoint as="offset" />
          </mxGeometry>
        </mxCell>
        <mxCell id="JS1CEvQ-qRMqoW8XUNv4-152" style="edgeStyle=orthogonalEdgeStyle;rounded=0;orthogonalLoop=1;jettySize=auto;html=1;exitX=0.5;exitY=0;exitDx=0;exitDy=0;fontStyle=1;fontSize=15;" edge="1" parent="WIyWlLk6GJQsqaUBKTNV-1" source="JS1CEvQ-qRMqoW8XUNv4-111">
          <mxGeometry relative="1" as="geometry">
            <mxPoint x="920.0000000000005" y="430" as="targetPoint" />
            <Array as="points">
              <mxPoint x="1950" y="300" />
              <mxPoint x="921" y="300" />
              <mxPoint x="921" y="430" />
            </Array>
          </mxGeometry>
        </mxCell>
        <mxCell id="JS1CEvQ-qRMqoW8XUNv4-185" value="&lt;span style=&quot;font-size: 15px;&quot;&gt;&lt;font style=&quot;font-size: 15px;&quot;&gt;No&lt;/font&gt;&lt;/span&gt;" style="edgeLabel;html=1;align=center;verticalAlign=middle;resizable=0;points=[];fontStyle=1;fontSize=15;" vertex="1" connectable="0" parent="JS1CEvQ-qRMqoW8XUNv4-152">
          <mxGeometry x="-0.9605" relative="1" as="geometry">
            <mxPoint as="offset" />
          </mxGeometry>
        </mxCell>
        <mxCell id="JS1CEvQ-qRMqoW8XUNv4-111" value="If&lt;br style=&quot;font-size: 15px;&quot;&gt;&amp;nbsp;spin btn&lt;br style=&quot;font-size: 15px;&quot;&gt;pressed" style="rhombus;whiteSpace=wrap;html=1;shadow=0;fontFamily=Helvetica;fontSize=15;align=center;strokeWidth=1;spacing=6;spacingTop=-4;fontStyle=1;fillColor=#b0e3e6;strokeColor=#0e8088;" vertex="1" parent="WIyWlLk6GJQsqaUBKTNV-1">
          <mxGeometry x="1900" y="340" width="100" height="80" as="geometry" />
        </mxCell>
        <mxCell id="JS1CEvQ-qRMqoW8XUNv4-121" value="" style="edgeStyle=orthogonalEdgeStyle;rounded=0;orthogonalLoop=1;jettySize=auto;html=1;fontStyle=1;fontSize=15;" edge="1" parent="WIyWlLk6GJQsqaUBKTNV-1" source="JS1CEvQ-qRMqoW8XUNv4-122" target="JS1CEvQ-qRMqoW8XUNv4-123">
          <mxGeometry relative="1" as="geometry" />
        </mxCell>
        <mxCell id="JS1CEvQ-qRMqoW8XUNv4-122" value="Spin Start" style="rounded=0;whiteSpace=wrap;html=1;fontStyle=1;fontSize=15;fillColor=#dae8fc;strokeColor=#6c8ebf;" vertex="1" parent="WIyWlLk6GJQsqaUBKTNV-1">
          <mxGeometry x="1700" y="601.43" width="120" height="60" as="geometry" />
        </mxCell>
        <mxCell id="JS1CEvQ-qRMqoW8XUNv4-170" value="" style="edgeStyle=orthogonalEdgeStyle;rounded=0;orthogonalLoop=1;jettySize=auto;html=1;fontStyle=1;fontSize=15;" edge="1" parent="WIyWlLk6GJQsqaUBKTNV-1" source="JS1CEvQ-qRMqoW8XUNv4-123" target="JS1CEvQ-qRMqoW8XUNv4-165">
          <mxGeometry relative="1" as="geometry" />
        </mxCell>
        <mxCell id="JS1CEvQ-qRMqoW8XUNv4-123" value="No.4 LED On" style="shape=document;whiteSpace=wrap;html=1;boundedLbl=1;fontStyle=1;fontSize=15;fillColor=#f5f5f5;strokeColor=#666666;fontColor=#333333;" vertex="1" parent="WIyWlLk6GJQsqaUBKTNV-1">
          <mxGeometry x="1520" y="591.43" width="120" height="80" as="geometry" />
        </mxCell>
        <mxCell id="JS1CEvQ-qRMqoW8XUNv4-124" value="" style="edgeStyle=orthogonalEdgeStyle;rounded=0;orthogonalLoop=1;jettySize=auto;html=1;fontStyle=1;fontSize=15;" edge="1" parent="WIyWlLk6GJQsqaUBKTNV-1" source="JS1CEvQ-qRMqoW8XUNv4-125" target="JS1CEvQ-qRMqoW8XUNv4-122">
          <mxGeometry relative="1" as="geometry" />
        </mxCell>
        <mxCell id="JS1CEvQ-qRMqoW8XUNv4-151" value="&lt;span style=&quot;font-size: 15px;&quot;&gt;&lt;font style=&quot;font-size: 15px;&quot;&gt;Yes&lt;/font&gt;&lt;/span&gt;" style="edgeLabel;html=1;align=center;verticalAlign=middle;resizable=0;points=[];fontStyle=1;fontSize=15;" vertex="1" connectable="0" parent="JS1CEvQ-qRMqoW8XUNv4-124">
          <mxGeometry x="-0.2179" y="-4" relative="1" as="geometry">
            <mxPoint as="offset" />
          </mxGeometry>
        </mxCell>
        <mxCell id="JS1CEvQ-qRMqoW8XUNv4-195" style="edgeStyle=orthogonalEdgeStyle;rounded=0;orthogonalLoop=1;jettySize=auto;html=1;exitX=0.5;exitY=0;exitDx=0;exitDy=0;entryX=0.5;entryY=0;entryDx=0;entryDy=0;" edge="1" parent="WIyWlLk6GJQsqaUBKTNV-1" source="JS1CEvQ-qRMqoW8XUNv4-125" target="JS1CEvQ-qRMqoW8XUNv4-39">
          <mxGeometry relative="1" as="geometry">
            <Array as="points">
              <mxPoint x="1950" y="540" />
              <mxPoint x="920" y="540" />
            </Array>
          </mxGeometry>
        </mxCell>
        <mxCell id="JS1CEvQ-qRMqoW8XUNv4-196" value="&lt;b&gt;&lt;font style=&quot;font-size: 16px;&quot;&gt;No&lt;/font&gt;&lt;/b&gt;" style="edgeLabel;html=1;align=center;verticalAlign=middle;resizable=0;points=[];" vertex="1" connectable="0" parent="JS1CEvQ-qRMqoW8XUNv4-195">
          <mxGeometry x="-0.9582" relative="1" as="geometry">
            <mxPoint as="offset" />
          </mxGeometry>
        </mxCell>
        <mxCell id="JS1CEvQ-qRMqoW8XUNv4-125" value="If&lt;br style=&quot;font-size: 15px;&quot;&gt;&amp;nbsp;spin btn&lt;br style=&quot;font-size: 15px;&quot;&gt;pressed" style="rhombus;whiteSpace=wrap;html=1;shadow=0;fontFamily=Helvetica;fontSize=15;align=center;strokeWidth=1;spacing=6;spacingTop=-4;fontStyle=1;fillColor=#b0e3e6;strokeColor=#0e8088;" vertex="1" parent="WIyWlLk6GJQsqaUBKTNV-1">
          <mxGeometry x="1900" y="591.43" width="100" height="80" as="geometry" />
        </mxCell>
        <mxCell id="JS1CEvQ-qRMqoW8XUNv4-128" value="" style="edgeStyle=orthogonalEdgeStyle;rounded=0;orthogonalLoop=1;jettySize=auto;html=1;fontStyle=1;fontSize=15;" edge="1" parent="WIyWlLk6GJQsqaUBKTNV-1" source="JS1CEvQ-qRMqoW8XUNv4-129" target="JS1CEvQ-qRMqoW8XUNv4-130">
          <mxGeometry relative="1" as="geometry" />
        </mxCell>
        <mxCell id="JS1CEvQ-qRMqoW8XUNv4-129" value="Spin Start" style="rounded=0;whiteSpace=wrap;html=1;fontStyle=1;fontSize=15;fillColor=#dae8fc;strokeColor=#6c8ebf;" vertex="1" parent="WIyWlLk6GJQsqaUBKTNV-1">
          <mxGeometry x="1700" y="850" width="120" height="60" as="geometry" />
        </mxCell>
        <mxCell id="JS1CEvQ-qRMqoW8XUNv4-171" value="" style="edgeStyle=orthogonalEdgeStyle;rounded=0;orthogonalLoop=1;jettySize=auto;html=1;fontStyle=1;fontSize=15;" edge="1" parent="WIyWlLk6GJQsqaUBKTNV-1" source="JS1CEvQ-qRMqoW8XUNv4-130" target="JS1CEvQ-qRMqoW8XUNv4-168">
          <mxGeometry relative="1" as="geometry" />
        </mxCell>
        <mxCell id="JS1CEvQ-qRMqoW8XUNv4-130" value="No.4 LED On" style="shape=document;whiteSpace=wrap;html=1;boundedLbl=1;fontStyle=1;fontSize=15;fillColor=#f5f5f5;strokeColor=#666666;fontColor=#333333;" vertex="1" parent="WIyWlLk6GJQsqaUBKTNV-1">
          <mxGeometry x="1520" y="840" width="120" height="80" as="geometry" />
        </mxCell>
        <mxCell id="JS1CEvQ-qRMqoW8XUNv4-131" value="" style="edgeStyle=orthogonalEdgeStyle;rounded=0;orthogonalLoop=1;jettySize=auto;html=1;fontStyle=1;fontSize=15;" edge="1" parent="WIyWlLk6GJQsqaUBKTNV-1" source="JS1CEvQ-qRMqoW8XUNv4-132" target="JS1CEvQ-qRMqoW8XUNv4-129">
          <mxGeometry relative="1" as="geometry" />
        </mxCell>
        <mxCell id="JS1CEvQ-qRMqoW8XUNv4-154" style="edgeStyle=orthogonalEdgeStyle;rounded=0;orthogonalLoop=1;jettySize=auto;html=1;exitX=0.5;exitY=0;exitDx=0;exitDy=0;fontStyle=1;fontSize=15;" edge="1" parent="WIyWlLk6GJQsqaUBKTNV-1" source="JS1CEvQ-qRMqoW8XUNv4-132">
          <mxGeometry relative="1" as="geometry">
            <mxPoint x="920.0000000000005" y="940" as="targetPoint" />
            <Array as="points">
              <mxPoint x="1950" y="790" />
              <mxPoint x="921" y="790" />
              <mxPoint x="921" y="950" />
            </Array>
          </mxGeometry>
        </mxCell>
        <mxCell id="JS1CEvQ-qRMqoW8XUNv4-183" value="&lt;span style=&quot;font-size: 15px;&quot;&gt;&lt;font style=&quot;font-size: 15px;&quot;&gt;No&lt;/font&gt;&lt;/span&gt;" style="edgeLabel;html=1;align=center;verticalAlign=middle;resizable=0;points=[];fontStyle=1;fontSize=15;" vertex="1" connectable="0" parent="JS1CEvQ-qRMqoW8XUNv4-154">
          <mxGeometry x="-0.9535" relative="1" as="geometry">
            <mxPoint as="offset" />
          </mxGeometry>
        </mxCell>
        <mxCell id="JS1CEvQ-qRMqoW8XUNv4-132" value="If&lt;br style=&quot;font-size: 15px;&quot;&gt;&amp;nbsp;spin btn&lt;br style=&quot;font-size: 15px;&quot;&gt;pressed" style="rhombus;whiteSpace=wrap;html=1;shadow=0;fontFamily=Helvetica;fontSize=15;align=center;strokeWidth=1;spacing=6;spacingTop=-4;fontStyle=1;fillColor=#b0e3e6;strokeColor=#0e8088;" vertex="1" parent="WIyWlLk6GJQsqaUBKTNV-1">
          <mxGeometry x="1900" y="840" width="100" height="80" as="geometry" />
        </mxCell>
        <mxCell id="JS1CEvQ-qRMqoW8XUNv4-159" value="" style="edgeStyle=orthogonalEdgeStyle;rounded=0;orthogonalLoop=1;jettySize=auto;html=1;fontStyle=1;fontSize=15;" edge="1" parent="WIyWlLk6GJQsqaUBKTNV-1" source="JS1CEvQ-qRMqoW8XUNv4-155" target="JS1CEvQ-qRMqoW8XUNv4-158">
          <mxGeometry relative="1" as="geometry" />
        </mxCell>
        <mxCell id="JS1CEvQ-qRMqoW8XUNv4-179" value="&lt;span style=&quot;font-size: 15px;&quot;&gt;&lt;font style=&quot;font-size: 15px;&quot;&gt;Yes&lt;/font&gt;&lt;/span&gt;" style="edgeLabel;html=1;align=center;verticalAlign=middle;resizable=0;points=[];fontStyle=1;fontSize=15;" vertex="1" connectable="0" parent="JS1CEvQ-qRMqoW8XUNv4-159">
          <mxGeometry x="-0.2057" relative="1" as="geometry">
            <mxPoint as="offset" />
          </mxGeometry>
        </mxCell>
        <mxCell id="JS1CEvQ-qRMqoW8XUNv4-163" style="edgeStyle=orthogonalEdgeStyle;rounded=0;orthogonalLoop=1;jettySize=auto;html=1;exitX=0.5;exitY=0;exitDx=0;exitDy=0;fontStyle=1;fontSize=15;" edge="1" parent="WIyWlLk6GJQsqaUBKTNV-1" source="JS1CEvQ-qRMqoW8XUNv4-155">
          <mxGeometry relative="1" as="geometry">
            <mxPoint x="1410.1428571428573" y="300" as="targetPoint" />
          </mxGeometry>
        </mxCell>
        <mxCell id="JS1CEvQ-qRMqoW8XUNv4-178" value="&lt;span style=&quot;font-size: 15px;&quot;&gt;&lt;font style=&quot;font-size: 15px;&quot;&gt;No&lt;/font&gt;&lt;/span&gt;" style="edgeLabel;html=1;align=center;verticalAlign=middle;resizable=0;points=[];fontStyle=1;fontSize=15;" vertex="1" connectable="0" parent="JS1CEvQ-qRMqoW8XUNv4-163">
          <mxGeometry x="-0.148" relative="1" as="geometry">
            <mxPoint as="offset" />
          </mxGeometry>
        </mxCell>
        <mxCell id="JS1CEvQ-qRMqoW8XUNv4-155" value="If&lt;br style=&quot;font-size: 15px;&quot;&gt;&amp;nbsp;spin btn&lt;br style=&quot;font-size: 15px;&quot;&gt;pressed" style="rhombus;whiteSpace=wrap;html=1;shadow=0;fontFamily=Helvetica;fontSize=15;align=center;strokeWidth=1;spacing=6;spacingTop=-4;fontStyle=1;fillColor=#b0e3e6;strokeColor=#0e8088;" vertex="1" parent="WIyWlLk6GJQsqaUBKTNV-1">
          <mxGeometry x="1360" y="340" width="100" height="80" as="geometry" />
        </mxCell>
        <mxCell id="JS1CEvQ-qRMqoW8XUNv4-189" value="" style="edgeStyle=orthogonalEdgeStyle;rounded=0;orthogonalLoop=1;jettySize=auto;html=1;" edge="1" parent="WIyWlLk6GJQsqaUBKTNV-1" source="JS1CEvQ-qRMqoW8XUNv4-158" target="JS1CEvQ-qRMqoW8XUNv4-186">
          <mxGeometry relative="1" as="geometry" />
        </mxCell>
        <mxCell id="JS1CEvQ-qRMqoW8XUNv4-158" value="Spin Stop" style="rounded=0;whiteSpace=wrap;html=1;fontStyle=1;fontSize=15;fillColor=#bac8d3;strokeColor=#23445d;" vertex="1" parent="WIyWlLk6GJQsqaUBKTNV-1">
          <mxGeometry x="1190" y="350" width="120" height="60" as="geometry" />
        </mxCell>
        <mxCell id="JS1CEvQ-qRMqoW8XUNv4-164" value="" style="edgeStyle=orthogonalEdgeStyle;rounded=0;orthogonalLoop=1;jettySize=auto;html=1;fontStyle=1;fontSize=15;" edge="1" parent="WIyWlLk6GJQsqaUBKTNV-1" source="JS1CEvQ-qRMqoW8XUNv4-165" target="JS1CEvQ-qRMqoW8XUNv4-166">
          <mxGeometry relative="1" as="geometry" />
        </mxCell>
        <mxCell id="JS1CEvQ-qRMqoW8XUNv4-180" value="&lt;span style=&quot;font-size: 15px;&quot;&gt;&lt;font style=&quot;font-size: 15px;&quot;&gt;Yes&lt;/font&gt;&lt;/span&gt;" style="edgeLabel;html=1;align=center;verticalAlign=middle;resizable=0;points=[];fontStyle=1;fontSize=15;" vertex="1" connectable="0" parent="JS1CEvQ-qRMqoW8XUNv4-164">
          <mxGeometry x="-0.2057" relative="1" as="geometry">
            <mxPoint as="offset" />
          </mxGeometry>
        </mxCell>
        <mxCell id="JS1CEvQ-qRMqoW8XUNv4-175" style="edgeStyle=orthogonalEdgeStyle;rounded=0;orthogonalLoop=1;jettySize=auto;html=1;exitX=0.5;exitY=0;exitDx=0;exitDy=0;fontStyle=1;fontSize=15;" edge="1" parent="WIyWlLk6GJQsqaUBKTNV-1" source="JS1CEvQ-qRMqoW8XUNv4-165">
          <mxGeometry relative="1" as="geometry">
            <mxPoint x="1410.1428571428573" y="540" as="targetPoint" />
          </mxGeometry>
        </mxCell>
        <mxCell id="JS1CEvQ-qRMqoW8XUNv4-177" value="&lt;span style=&quot;font-size: 15px;&quot;&gt;&lt;font style=&quot;font-size: 15px;&quot;&gt;No&lt;/font&gt;&lt;/span&gt;" style="edgeLabel;html=1;align=center;verticalAlign=middle;resizable=0;points=[];fontStyle=1;fontSize=15;" vertex="1" connectable="0" parent="JS1CEvQ-qRMqoW8XUNv4-175">
          <mxGeometry x="-0.0275" y="1" relative="1" as="geometry">
            <mxPoint x="-1" as="offset" />
          </mxGeometry>
        </mxCell>
        <mxCell id="JS1CEvQ-qRMqoW8XUNv4-165" value="If&lt;br style=&quot;font-size: 15px;&quot;&gt;&amp;nbsp;spin btn&lt;br style=&quot;font-size: 15px;&quot;&gt;pressed" style="rhombus;whiteSpace=wrap;html=1;shadow=0;fontFamily=Helvetica;fontSize=15;align=center;strokeWidth=1;spacing=6;spacingTop=-4;fontStyle=1;fillColor=#b0e3e6;strokeColor=#0e8088;" vertex="1" parent="WIyWlLk6GJQsqaUBKTNV-1">
          <mxGeometry x="1360" y="591.4300000000001" width="100" height="80" as="geometry" />
        </mxCell>
        <mxCell id="JS1CEvQ-qRMqoW8XUNv4-190" value="" style="edgeStyle=orthogonalEdgeStyle;rounded=0;orthogonalLoop=1;jettySize=auto;html=1;" edge="1" parent="WIyWlLk6GJQsqaUBKTNV-1" source="JS1CEvQ-qRMqoW8XUNv4-166" target="JS1CEvQ-qRMqoW8XUNv4-187">
          <mxGeometry relative="1" as="geometry" />
        </mxCell>
        <mxCell id="JS1CEvQ-qRMqoW8XUNv4-166" value="Spin Stop" style="rounded=0;whiteSpace=wrap;html=1;fontStyle=1;fontSize=15;fillColor=#bac8d3;strokeColor=#23445d;" vertex="1" parent="WIyWlLk6GJQsqaUBKTNV-1">
          <mxGeometry x="1190" y="601.4300000000001" width="120" height="60" as="geometry" />
        </mxCell>
        <mxCell id="JS1CEvQ-qRMqoW8XUNv4-167" value="" style="edgeStyle=orthogonalEdgeStyle;rounded=0;orthogonalLoop=1;jettySize=auto;html=1;fontStyle=1;fontSize=15;" edge="1" parent="WIyWlLk6GJQsqaUBKTNV-1" source="JS1CEvQ-qRMqoW8XUNv4-168" target="JS1CEvQ-qRMqoW8XUNv4-169">
          <mxGeometry relative="1" as="geometry" />
        </mxCell>
        <mxCell id="JS1CEvQ-qRMqoW8XUNv4-181" value="&lt;span style=&quot;font-size: 15px;&quot;&gt;&lt;font style=&quot;font-size: 15px;&quot;&gt;Yes&lt;/font&gt;&lt;/span&gt;" style="edgeLabel;html=1;align=center;verticalAlign=middle;resizable=0;points=[];fontStyle=1;fontSize=15;" vertex="1" connectable="0" parent="JS1CEvQ-qRMqoW8XUNv4-167">
          <mxGeometry x="-0.1486" relative="1" as="geometry">
            <mxPoint as="offset" />
          </mxGeometry>
        </mxCell>
        <mxCell id="JS1CEvQ-qRMqoW8XUNv4-176" style="edgeStyle=orthogonalEdgeStyle;rounded=0;orthogonalLoop=1;jettySize=auto;html=1;exitX=0.5;exitY=0;exitDx=0;exitDy=0;fontStyle=1;fontSize=15;" edge="1" parent="WIyWlLk6GJQsqaUBKTNV-1" source="JS1CEvQ-qRMqoW8XUNv4-168">
          <mxGeometry relative="1" as="geometry">
            <mxPoint x="1410.1428571428573" y="790" as="targetPoint" />
          </mxGeometry>
        </mxCell>
        <mxCell id="JS1CEvQ-qRMqoW8XUNv4-182" value="&lt;span style=&quot;font-size: 15px;&quot;&gt;&lt;font style=&quot;font-size: 15px;&quot;&gt;No&lt;/font&gt;&lt;/span&gt;" style="edgeLabel;html=1;align=center;verticalAlign=middle;resizable=0;points=[];fontStyle=1;fontSize=15;" vertex="1" connectable="0" parent="JS1CEvQ-qRMqoW8XUNv4-176">
          <mxGeometry x="-0.0905" y="1" relative="1" as="geometry">
            <mxPoint as="offset" />
          </mxGeometry>
        </mxCell>
        <mxCell id="JS1CEvQ-qRMqoW8XUNv4-168" value="If&lt;br style=&quot;font-size: 15px;&quot;&gt;&amp;nbsp;spin btn&lt;br style=&quot;font-size: 15px;&quot;&gt;pressed" style="rhombus;whiteSpace=wrap;html=1;shadow=0;fontFamily=Helvetica;fontSize=15;align=center;strokeWidth=1;spacing=6;spacingTop=-4;fontStyle=1;fillColor=#b0e3e6;strokeColor=#0e8088;" vertex="1" parent="WIyWlLk6GJQsqaUBKTNV-1">
          <mxGeometry x="1360" y="840" width="100" height="80" as="geometry" />
        </mxCell>
        <mxCell id="JS1CEvQ-qRMqoW8XUNv4-191" value="" style="edgeStyle=orthogonalEdgeStyle;rounded=0;orthogonalLoop=1;jettySize=auto;html=1;" edge="1" parent="WIyWlLk6GJQsqaUBKTNV-1" source="JS1CEvQ-qRMqoW8XUNv4-169" target="JS1CEvQ-qRMqoW8XUNv4-188">
          <mxGeometry relative="1" as="geometry" />
        </mxCell>
        <mxCell id="JS1CEvQ-qRMqoW8XUNv4-169" value="Spin Stop" style="rounded=0;whiteSpace=wrap;html=1;fontStyle=1;fontSize=15;fillColor=#bac8d3;strokeColor=#23445d;" vertex="1" parent="WIyWlLk6GJQsqaUBKTNV-1">
          <mxGeometry x="1190" y="850" width="120" height="60" as="geometry" />
        </mxCell>
        <mxCell id="JS1CEvQ-qRMqoW8XUNv4-192" style="edgeStyle=orthogonalEdgeStyle;rounded=0;orthogonalLoop=1;jettySize=auto;html=1;exitX=0;exitY=0.5;exitDx=0;exitDy=0;" edge="1" parent="WIyWlLk6GJQsqaUBKTNV-1" source="JS1CEvQ-qRMqoW8XUNv4-186">
          <mxGeometry relative="1" as="geometry">
            <mxPoint x="920.0000000000005" y="379.8571428571429" as="targetPoint" />
          </mxGeometry>
        </mxCell>
        <mxCell id="JS1CEvQ-qRMqoW8XUNv4-186" value="No.4 LED Off" style="shape=document;whiteSpace=wrap;html=1;boundedLbl=1;fontStyle=1;fontSize=15;fillColor=#f5f5f5;strokeColor=#666666;fontColor=#333333;" vertex="1" parent="WIyWlLk6GJQsqaUBKTNV-1">
          <mxGeometry x="1010" y="340" width="120" height="80" as="geometry" />
        </mxCell>
        <mxCell id="JS1CEvQ-qRMqoW8XUNv4-193" style="edgeStyle=orthogonalEdgeStyle;rounded=0;orthogonalLoop=1;jettySize=auto;html=1;exitX=0;exitY=0.5;exitDx=0;exitDy=0;" edge="1" parent="WIyWlLk6GJQsqaUBKTNV-1" source="JS1CEvQ-qRMqoW8XUNv4-187">
          <mxGeometry relative="1" as="geometry">
            <mxPoint x="920.0000000000005" y="631.2857142857144" as="targetPoint" />
          </mxGeometry>
        </mxCell>
        <mxCell id="JS1CEvQ-qRMqoW8XUNv4-187" value="No.4 LED Off" style="shape=document;whiteSpace=wrap;html=1;boundedLbl=1;fontStyle=1;fontSize=15;fillColor=#f5f5f5;strokeColor=#666666;fontColor=#333333;" vertex="1" parent="WIyWlLk6GJQsqaUBKTNV-1">
          <mxGeometry x="1020" y="591.4300000000001" width="120" height="80" as="geometry" />
        </mxCell>
        <mxCell id="JS1CEvQ-qRMqoW8XUNv4-194" style="edgeStyle=orthogonalEdgeStyle;rounded=0;orthogonalLoop=1;jettySize=auto;html=1;exitX=0;exitY=0.5;exitDx=0;exitDy=0;" edge="1" parent="WIyWlLk6GJQsqaUBKTNV-1" source="JS1CEvQ-qRMqoW8XUNv4-188">
          <mxGeometry relative="1" as="geometry">
            <mxPoint x="920.0000000000005" y="879.8571428571429" as="targetPoint" />
          </mxGeometry>
        </mxCell>
        <mxCell id="JS1CEvQ-qRMqoW8XUNv4-188" value="No.4 LED Off" style="shape=document;whiteSpace=wrap;html=1;boundedLbl=1;fontStyle=1;fontSize=15;fillColor=#f5f5f5;strokeColor=#666666;fontColor=#333333;" vertex="1" parent="WIyWlLk6GJQsqaUBKTNV-1">
          <mxGeometry x="1020" y="840" width="120" height="80" as="geometry" />
        </mxCell>
      </root>
    </mxGraphModel>
  </diagram>
</mxfile>
